<?xml version="1.0" encoding="UTF-8"?>
<!DOCTYPE svg PUBLIC "-//W3C//DTD SVG 1.1//EN" "http://www.w3.org/Graphics/SVG/1.1/DTD/svg11.dtd">
<svg version="1.1" xmlns="http://www.w3.org/2000/svg" xmlns:xlink="http://www.w3.org/1999/xlink" x="0" y="0" width="500" height="106" viewBox="0, 0, 500, 106">
  <g id="Background">
    <rect x="0" y="0" width="500" height="106" fill="#FFFFFF"/>
  </g>
  <defs>
    <clipPath id="Clip_1">
      <path d="M0.06,0.732 L500,0.732 L500,106 L0.06,106 z"/>
    </clipPath>
  </defs>
  <g id="Layer_1">
    <path d="M414.237,53.692 C414.237,53.692 414.237,52.348 414.237,51.918 C414.237,51.918 415.416,51.918 415.928,51.923 C417.602,51.938 417.875,51.644 417.902,51.618 C417.936,51.571 418.136,51.188 418.136,49.089 L418.136,23.383 C418.136,21.423 418.01,21.028 417.975,20.954 C417.928,20.901 417.615,20.628 415.598,20.549 C415.259,20.536 414.237,20.552 414.237,20.552 L414.237,18.932 L427.846,18.932 L427.846,20.673 C427.846,20.673 427.165,20.673 425.247,20.693 C424.242,20.703 424.095,20.941 424.095,20.941 C424.061,20.988 423.904,21.293 423.904,22.74 L423.904,48.763 C423.904,51.006 424.026,51.445 424.061,51.527 C424.139,51.592 424.699,51.84 426.924,51.918 C427.247,51.918 427.846,51.918 427.846,51.918 L427.846,53.692 C427.846,53.692 415.128,53.692 414.237,53.692" fill="#8B263C"/>
    <path d="M302.075,87.948 C302.075,87.948 302.075,87.151 302.075,86.896 C302.075,86.896 302.774,86.896 303.078,86.899 C304.071,86.908 304.233,86.734 304.249,86.718 C304.269,86.69 304.388,86.463 304.388,85.218 L304.388,69.97 C304.388,68.808 304.313,68.573 304.293,68.529 C304.264,68.498 304.078,68.336 302.882,68.289 C302.681,68.282 302.075,68.291 302.075,68.291 L302.075,67.33 L310.148,67.33 L310.148,68.363 C310.148,68.363 309.743,68.363 308.606,68.375 C308.01,68.381 307.923,68.521 307.923,68.521 C307.902,68.55 307.809,68.73 307.809,69.589 L307.809,85.025 C307.809,86.355 307.881,86.615 307.902,86.664 C307.948,86.703 308.28,86.85 309.6,86.896 C309.792,86.896 310.148,86.896 310.148,86.896 L310.148,87.948 C310.148,87.948 302.604,87.948 302.075,87.948" fill="#8B263C"/>
    <path d="M140.714,19.794 C138.194,19.794 136.22,20.575 134.841,22.112 C132.258,24.995 130.948,29.77 130.948,36.313 C130.948,41.506 131.864,45.585 133.67,48.44 C135.45,51.256 137.985,52.683 141.205,52.683 C144.228,52.683 146.441,51.379 147.971,48.698 C149.669,45.711 150.531,41.659 150.531,36.658 C150.531,30.752 149.313,26.102 146.914,22.833 C145.438,20.818 143.354,19.794 140.714,19.794 z M141.154,54.039 C136.596,54.039 132.713,52.289 129.613,48.839 C126.515,45.406 124.947,41.109 124.947,36.073 C124.947,30.937 126.459,26.67 129.439,23.391 C132.429,20.107 136.304,18.441 140.959,18.441 C145.356,18.441 149.091,20.181 152.063,23.616 C155.03,27.041 156.532,31.346 156.532,36.413 C156.532,41.314 155.038,45.519 152.089,48.911 C149.14,52.315 145.459,54.039 141.154,54.039" fill="#8B263C"/>
    <path d="M174.708,35.101 C174.895,35.119 175.097,35.126 175.327,35.126 C177.422,35.126 179.22,34.658 180.668,33.737 C182.436,32.609 183.333,30.481 183.333,27.409 C183.333,22.616 181.402,20.283 177.435,20.283 C176.166,20.283 175.302,20.495 174.933,20.892 C174.877,20.951 174.708,21.204 174.708,22.24 L174.708,35.101 z M165.234,53.502 L165.234,52.146 C167.25,52.146 168.899,51.885 168.961,51.806 L169.048,51.734 C169.26,51.627 169.327,51.259 169.347,50.97 L169.347,22.081 C169.347,21.189 169.119,20.644 168.677,20.465 C168.472,20.383 168.025,20.283 167.063,20.283 L166.229,20.283 C165.362,20.283 165.234,20.283 165.234,20.283 L165.234,18.935 L177.629,18.935 C181.392,18.935 184.195,19.61 185.958,20.94 C187.973,22.452 188.994,24.613 188.994,27.363 C188.994,30.607 187.59,33.167 184.817,34.968 C183.083,36.101 180.862,36.676 178.215,36.676 C177.174,36.676 175.997,36.577 174.708,36.375 L174.708,49.967 C174.708,50.906 174.762,51.202 174.795,51.297 C174.926,51.66 175.202,51.873 175.667,51.954 C176.565,52.08 178.274,52.163 179.159,52.163 L179.159,53.502 L165.234,53.502" fill="#8B263C"/>
    <path d="M205.412,35.101 C205.599,35.119 205.801,35.126 206.031,35.126 C208.126,35.126 209.924,34.658 211.372,33.737 C213.139,32.609 214.037,30.481 214.037,27.409 C214.037,22.616 212.106,20.283 208.139,20.283 C206.87,20.283 206.005,20.495 205.637,20.892 C205.581,20.951 205.412,21.204 205.412,22.24 L205.412,35.101 z M195.938,53.502 L195.938,52.146 C197.953,52.146 199.603,51.885 199.664,51.806 L199.751,51.734 C199.964,51.627 200.03,51.259 200.051,50.97 L200.051,22.081 C200.051,21.189 199.823,20.644 199.381,20.465 C199.176,20.383 198.728,20.283 197.767,20.283 L196.933,20.283 C196.066,20.283 195.938,20.283 195.938,20.283 L195.938,18.935 L208.333,18.935 C212.096,18.935 214.899,19.61 216.661,20.94 C218.677,22.452 219.698,24.613 219.698,27.363 C219.698,30.607 218.293,33.167 215.521,34.968 C213.786,36.101 211.566,36.676 208.919,36.676 C207.878,36.676 206.701,36.577 205.412,36.375 L205.412,49.967 C205.412,50.906 205.466,51.202 205.499,51.297 C205.629,51.66 205.906,51.873 206.371,51.954 C207.269,52.08 208.978,52.163 209.863,52.163 L209.863,53.502 L195.938,53.502" fill="#8B263C"/>
    <path d="M243.385,19.794 C240.868,19.794 238.893,20.575 237.515,22.112 C234.931,24.995 233.619,29.773 233.619,36.313 C233.619,41.5 234.535,45.583 236.343,48.44 C238.124,51.256 240.658,52.683 243.879,52.683 C246.861,52.683 249.138,51.343 250.644,48.698 C252.343,45.711 253.205,41.659 253.205,36.658 C253.205,30.752 251.987,26.1 249.585,22.833 C248.109,20.818 246.025,19.794 243.385,19.794 z M243.825,54.039 C239.267,54.039 235.384,52.289 232.284,48.839 C229.186,45.406 227.618,41.109 227.618,36.073 C227.618,30.944 229.13,26.678 232.113,23.391 C235.103,20.107 238.978,18.441 243.633,18.441 C248.03,18.441 251.765,20.181 254.737,23.616 C257.704,27.043 259.205,31.348 259.205,36.413 C259.205,41.314 257.712,45.519 254.762,48.911 C251.811,52.315 248.13,54.039 243.825,54.039" fill="#8B263C"/>
    <path d="M279.912,20.483 C278.643,20.483 278.103,20.695 277.871,20.869 C277.548,21.107 277.387,21.564 277.387,22.227 L277.387,34.392 C280.303,34.39 282.436,33.832 283.731,32.74 C285.048,31.622 285.718,29.765 285.718,27.215 C285.718,22.685 283.818,20.483 279.912,20.483 z M292.678,54.039 C290.056,54.039 287.977,52.931 286.493,50.745 C285.854,49.801 285.437,48.882 285.255,48.013 C285.071,47.123 284.79,44.882 284.444,41.526 C284.258,39.526 283.618,38.098 282.541,37.283 C281.487,36.484 279.753,36.037 277.387,35.95 L277.387,51.09 C277.387,51.277 277.387,51.844 278.727,52.054 C279.019,52.085 279.832,52.121 280.945,52.151 C281.331,52.151 281.833,52.151 281.833,52.151 L281.833,53.499 L267.859,53.499 L267.859,52.151 C267.859,52.151 269.144,52.165 269.578,52.151 C271.678,52.105 271.834,51.75 271.839,51.734 L271.877,51.663 C271.89,51.642 272.018,51.397 272.018,49.918 L272.018,22.907 C272.018,21.247 271.785,20.846 271.683,20.751 C271.581,20.654 271.148,20.424 269.34,20.383 C269.335,20.383 269.33,20.383 269.325,20.383 C269.067,20.383 267.859,20.358 267.859,20.358 L267.859,18.932 C267.859,18.932 280.799,18.932 281.331,18.932 C284.411,18.932 286.892,19.631 288.703,21.015 C290.542,22.419 291.473,24.34 291.473,26.726 C291.473,29.08 290.519,31.049 288.637,32.581 C286.9,33.993 284.559,34.87 281.672,35.195 C284.851,35.832 287.071,37.04 288.317,38.792 C289.626,40.631 290.506,43.984 290.934,48.757 C291.182,51.302 291.992,52.543 293.412,52.543 L294.183,52.57 L294.183,54.039 C294.183,54.039 293.397,54.039 292.678,54.039" fill="#8B263C"/>
    <path d="M491.963,53.453 L477.22,53.453 L477.22,51.996 C477.22,51.996 478.413,51.96 478.593,51.952 C480.854,51.873 481.463,51.647 481.622,51.522 C481.739,51.427 482.013,51.034 482.013,49.389 L482.013,39.157 C481.67,38.413 480.75,36.561 479.202,33.499 L474.314,23.813 C473.815,22.854 473.229,21.802 472.577,20.685 C472.344,20.498 471.789,20.317 470.459,20.317 C469.505,20.317 468.413,20.317 468.413,20.317 L468.413,18.805 L483.746,18.805 L483.746,20.317 C483.746,20.317 482.737,20.288 481.786,20.288 C479.998,20.288 479.013,20.582 479.013,21.112 C479.013,21.398 479.409,22.641 482.062,27.734 L486.28,35.717 C486.988,34.423 487.822,32.796 488.817,30.757 L491.702,24.936 C493.032,22.373 493.311,21.337 493.311,20.917 C493.311,20.784 493.311,20.508 492.718,20.442 C491.273,20.227 489.106,20.235 489.106,20.235 L489.106,18.805 L500,18.805 L500,20.235 C500,20.235 499.811,20.235 498.905,20.235 C496.792,20.276 496.048,20.662 495.792,21.017 C495.511,21.286 494.59,22.913 491.61,29.379 C490.536,31.694 489.513,33.755 488.569,35.51 C487.779,36.97 487.536,37.628 487.469,37.922 C487.405,38.219 487.328,38.948 487.328,40.736 L487.328,50.008 C487.328,51.384 487.561,51.655 487.633,51.704 C487.722,51.765 488.169,51.996 490.408,51.996 C491.195,51.996 491.963,51.996 491.963,51.996 L491.963,53.453" fill="#8B263C"/>
    <path d="M219.3,88.291 C218.217,88.291 216.962,87.974 215.467,87.322 C215.176,87.19 214.857,87.097 214.857,87.097 L214.849,88.291 L213.534,88.291 L213.534,81.293 L214.849,81.293 L214.849,82.216 C215.151,85.406 216.789,87.19 219.416,87.19 C220.511,87.19 221.367,86.881 221.955,86.273 C222.55,85.662 222.852,84.775 222.852,83.636 C222.852,82.62 222.555,81.747 221.973,81.043 C221.369,80.314 220.315,79.576 218.841,78.849 C216.951,77.911 215.676,77.027 214.938,76.148 C214.186,75.256 213.804,74.14 213.804,72.831 C213.804,71.168 214.348,69.774 215.426,68.686 C216.498,67.598 217.879,67.047 219.532,67.047 C220.225,67.047 221.148,67.268 222.346,67.727 C222.81,67.905 223.037,67.944 223.143,67.944 C223.3,67.944 223.359,67.915 223.375,67.908 C223.375,67.908 223.497,67.792 223.488,67.439 C223.483,67.211 223.483,66.931 223.483,66.931 L224.63,66.931 L224.63,72.803 L223.483,72.803 C223.483,72.803 223.502,72.101 223.444,71.825 C223.229,70.795 222.76,69.918 222.034,69.22 C221.287,68.503 220.475,68.153 219.557,68.153 C218.663,68.153 217.975,68.428 217.454,68.993 C216.936,69.555 216.673,70.341 216.673,71.326 C216.673,72.496 217.052,73.406 217.83,74.107 C218.274,74.511 219.264,75.102 220.774,75.857 C222.632,76.787 223.939,77.71 224.764,78.684 C225.589,79.664 226.006,80.796 226.006,82.048 C226.006,83.772 225.341,85.262 224.027,86.474 C222.725,87.68 221.135,88.291 219.3,88.291" fill="#8B263C"/>
    <path d="M484.747,87.977 L480.324,87.977 L480.324,86.971 C480.324,86.971 481.003,86.971 481.658,86.958 C482.266,86.947 482.533,86.778 482.541,86.763 C482.569,86.716 482.662,86.494 482.662,85.538 L482.662,69.248 C482.662,68.58 482.533,68.472 482.533,68.472 C482.422,68.365 480.381,68.338 480.381,68.338 L480.381,67.338 L495.807,67.338 L495.807,73.109 L494.697,73.109 C494.697,73.109 494.325,69.722 492.884,69.019 C492.478,68.82 491.351,68.529 488.157,68.529 L486.049,68.529 L486.049,76.496 L486.479,76.496 C489.085,76.496 489.982,76.254 490.276,76.053 C490.552,75.859 491.053,74.761 491.102,73.434 L491.137,72.535 L492.296,72.535 L492.296,81.762 L491.137,81.762 C491.137,81.762 491.008,80.293 490.933,79.677 C490.797,78.646 490.392,78.027 489.699,77.79 C489.485,77.718 488.853,77.63 487.08,77.63 L486.049,77.63 L486.049,86.786 C490.095,86.781 492.495,86.696 493.183,86.531 C494.341,86.273 494.982,85.157 495.147,83.115 C495.179,82.696 495.199,82.162 495.199,82.162 L496.338,82.162 L496.338,87.988 C496.338,87.988 490.315,87.977 484.747,87.977" fill="#8B263C"/>
    <path d="M321.858,53.502 C321.569,53.502 311.902,53.502 310.477,53.502 C310.093,53.502 308.923,53.502 308.923,53.502 C308.923,53.254 308.923,51.796 308.923,51.796 C308.923,51.796 310.447,51.77 311.444,51.753 C312.277,51.753 312.821,51.598 313.024,51.309 C313.037,51.278 313.184,50.976 313.184,49.569 L313.184,20.977 C309.613,21.029 308.301,21.249 307.835,21.431 C305.952,22.117 304.873,23.943 304.527,27.022 C304.484,27.475 304.393,28.866 304.393,28.866 L302.39,28.866 L302.39,18.922 L330.088,18.922 C330.088,18.922 330.088,27.993 330.088,28.036 C330.088,28.697 330.088,29.103 330.088,29.103 L327.973,29.103 C327.973,29.103 327.802,26.688 327.609,25.718 C327.402,24.647 327.048,23.706 326.564,22.955 C325.956,21.988 324.963,21.387 323.516,21.115 C322.532,20.917 321.819,20.861 321.202,20.882 C320.11,20.908 319.332,20.934 318.857,20.951 L318.857,49.771 C318.857,50.739 319.086,51.334 319.527,51.55 C319.656,51.615 320.131,51.762 322.061,51.796 C323.067,51.796 323.067,51.796 323.067,51.796 L323.067,53.502 C323.067,53.502 322.268,53.502 321.858,53.502" fill="#8B263C"/>
    <path d="M454.743,53.502 C454.454,53.502 444.787,53.502 443.362,53.502 C442.978,53.502 441.808,53.502 441.808,53.502 C441.808,53.254 441.808,51.796 441.808,51.796 C441.808,51.796 443.332,51.77 444.329,51.753 C445.162,51.753 445.706,51.598 445.909,51.309 C445.922,51.278 446.069,50.976 446.069,49.569 L446.069,20.977 C442.498,21.029 441.186,21.249 440.72,21.431 C438.837,22.117 437.758,23.943 437.412,27.022 C437.369,27.475 437.278,28.866 437.278,28.866 L435.275,28.866 L435.275,18.922 L462.973,18.922 C462.973,18.922 462.973,27.993 462.973,28.036 C462.973,28.697 462.973,29.103 462.973,29.103 L460.858,29.103 C460.858,29.103 460.687,26.688 460.494,25.718 C460.287,24.647 459.933,23.706 459.449,22.955 C458.841,21.988 457.848,21.387 456.401,21.115 C455.417,20.917 454.704,20.861 454.087,20.882 C452.995,20.908 452.217,20.934 451.742,20.951 L451.742,49.771 C451.742,50.739 451.971,51.334 452.412,51.55 C452.541,51.615 453.016,51.762 454.946,51.796 C455.952,51.796 455.952,51.796 455.952,51.796 L455.952,53.502 C455.952,53.502 455.153,53.502 454.743,53.502" fill="#8B263C"/>
    <path d="M353.345,54.044 C348.542,54.044 345.1,52.649 343.109,49.894 C341.805,48.054 341.144,45.018 341.144,40.867 L341.144,21.453 C341.105,21.263 340.971,20.944 340.328,20.827 C340.233,20.81 337.313,20.823 337.313,20.823 L337.313,18.979 L350.594,18.979 C350.594,18.979 350.605,20.823 350.594,20.823 C350.594,20.823 350.358,20.823 349.938,20.823 C349.732,20.823 349.268,20.836 347.938,20.875 C347.363,20.875 347.182,20.939 347.16,20.948 C346.97,21.021 346.923,21.116 346.914,21.242 C346.893,21.38 346.862,21.79 346.862,23.967 L346.862,41.273 C346.862,45.393 347.51,48.222 348.789,49.691 C350.045,51.125 351.967,51.854 354.507,51.854 C359.193,51.854 361.776,49.25 362.398,43.895 C362.493,43.074 362.54,39.515 362.54,33.322 L362.54,21.79 C362.54,21.281 362.342,21.017 361.879,20.913 C361.789,20.888 361.458,20.853 360.011,20.853 C359.569,20.853 358.619,20.853 358.619,20.853 L358.619,18.979 L368.993,18.979 L368.993,20.853 C368.993,20.853 368.764,20.853 367.675,20.853 L366.03,20.853 C365.693,20.853 365.106,20.863 364.993,21.165 C364.976,21.23 364.924,21.515 364.924,22.12 L364.924,40.116 C364.924,44.901 364.004,48.455 362.19,50.675 C360.351,52.913 357.375,54.044 353.345,54.044" fill="#8B263C"/>
    <path d="M395.521,88.291 C392.655,88.291 390.601,87.458 389.413,85.814 C388.634,84.716 388.24,82.904 388.24,80.427 L388.24,68.841 C388.217,68.727 388.137,68.537 387.753,68.467 C387.696,68.457 385.953,68.465 385.953,68.465 L385.953,67.364 L393.879,67.364 C393.879,67.364 393.886,68.465 393.879,68.465 C393.879,68.465 393.739,68.465 393.488,68.465 C393.365,68.465 393.088,68.472 392.294,68.495 C391.951,68.495 391.843,68.534 391.83,68.539 C391.717,68.583 391.689,68.64 391.683,68.715 C391.671,68.797 391.652,69.042 391.652,70.341 L391.652,80.669 C391.652,83.128 392.039,84.816 392.802,85.693 C393.552,86.549 394.699,86.984 396.215,86.984 C399.011,86.984 400.553,85.43 400.924,82.234 C400.981,81.744 401.009,79.62 401.009,75.924 L401.009,69.042 C401.009,68.738 400.89,68.58 400.615,68.519 C400.56,68.503 400.363,68.482 399.5,68.482 C399.236,68.482 398.669,68.482 398.669,68.482 L398.669,67.364 L404.86,67.364 L404.86,68.482 C404.86,68.482 404.723,68.482 404.074,68.482 L403.092,68.482 C402.891,68.482 402.54,68.489 402.473,68.669 C402.463,68.708 402.432,68.878 402.432,69.239 L402.432,79.978 C402.432,82.834 401.883,84.956 400.8,86.281 C399.702,87.616 397.926,88.291 395.521,88.291" fill="#8B263C"/>
    <g clip-path="url(#Clip_1)">
      <path d="M401.071,53.537 L394.665,44.153 C391.289,39.18 387.269,33.112 382.4,25.629 L382.4,51.217 C382.417,51.372 382.49,51.506 382.797,51.584 C383.211,51.687 387.034,51.738 387.034,51.738 L387.034,53.498 L375.482,53.498 L375.482,51.738 C375.482,51.738 376.611,51.738 376.883,51.738 C379.445,51.682 379.89,51.54 379.954,51.502 C379.954,51.502 380.213,51.282 380.213,49.811 L380.213,25.939 C380.213,23.429 379.73,21.864 378.777,21.277 C378.475,21.088 377.798,20.859 376.254,20.859 C375.133,20.859 374.563,20.853 374.563,20.853 L374.563,18.992 L384.453,18.979 L384.599,19.198 L400.475,42.893 L400.475,22.83 C400.475,21.562 400.445,21.195 400.427,21.088 C400.414,21.01 400.341,20.954 400.276,20.924 C400.272,20.919 399.936,20.853 398.159,20.853 C397.396,20.853 395.981,20.853 395.981,20.853 L395.981,18.992 C395.981,18.992 397.033,19.004 397.577,19.004 L406.866,18.992 L406.866,20.853 L403.283,20.853 C402.847,20.853 402.726,20.93 402.722,20.935 L402.722,20.881 C402.739,20.881 402.666,21.144 402.666,22.248 L402.666,53.537 L401.071,53.537" fill="#8B263C"/>
      <path d="M51.395,0.732 L-0,0.732 L-0,106 L36.479,106 L51.395,0.732" fill="#8B263C"/>
    </g>
    <path d="M79.436,0.732 L70.116,106 L105.268,106 L105.268,0.732 L79.436,0.732" fill="#8B263C"/>
    <path d="M53.724,0.732 L51.73,15.363 L52.244,15.324 L54.235,0.732 L53.724,0.732" fill="#8B263C"/>
    <path d="M55.122,0.732 L53.164,15.252 L74.501,13.609 L75.716,0.732 L55.122,0.732" fill="#8B263C"/>
    <path d="M74.273,16.029 L74.225,16.538 L51.855,18.128 L50.115,30.848 L49.602,30.872 L51.416,17.613 L74.273,16.029" fill="#8B263C"/>
    <path d="M74.106,17.794 L52.605,19.416 L51.076,30.8 L72.972,29.811 L74.106,17.794" fill="#8B263C"/>
    <path d="M50.52,34.936 L48.849,47.382 L71.36,46.91 L72.577,34.008 L50.52,34.936" fill="#8B263C"/>
    <path d="M70.964,51.102 L48.311,51.388 L46.494,64.912 L69.631,65.237 L70.964,51.102" fill="#8B263C"/>
    <path d="M69.31,68.627 L45.006,68.203 L42.907,83.55 L42.404,83.525 L44.57,67.665 L69.358,68.119 L69.31,68.627" fill="#8B263C"/>
    <path d="M69.241,69.355 L45.96,68.893 L43.989,83.604 L67.785,84.792 L69.241,69.355" fill="#8B263C"/>
    <path d="M42.432,87.023 L39.836,106 L39.327,106 L41.998,86.474 L67.495,87.869 L67.447,88.376" fill="#8B263C"/>
    <path d="M67.409,88.783 L43.468,87.448 L40.98,106 L65.784,106 L67.409,88.783" fill="#8B263C"/>
    <path d="M69.499,106 L68.989,106 L78.278,0.732 L78.746,0.732 L69.499,106" fill="#8B263C"/>
    <path d="M126.633,87.948 C126.633,87.948 126.633,87.151 126.633,86.896 C126.633,86.896 127.332,86.896 127.636,86.899 C128.628,86.909 128.79,86.734 128.806,86.719 C128.826,86.69 128.945,86.464 128.945,85.219 L128.945,69.975 C128.945,68.812 128.87,68.578 128.85,68.534 C128.821,68.503 128.636,68.341 127.44,68.294 C127.239,68.287 126.633,68.296 126.633,68.296 L126.633,67.336 L134.703,67.336 L134.703,68.368 C134.703,68.368 134.299,68.368 133.162,68.379 C132.566,68.385 132.479,68.526 132.479,68.526 C132.458,68.555 132.365,68.735 132.365,69.593 L132.365,85.025 C132.365,86.355 132.438,86.616 132.458,86.665 C132.505,86.703 132.837,86.85 134.156,86.896 C134.348,86.896 134.703,86.896 134.703,86.896 L134.703,87.948 C134.703,87.948 127.161,87.948 126.633,87.948" fill="#8B263C"/>
    <path d="M179.581,87.948 L175.76,82.35 C173.745,79.384 171.348,75.764 168.443,71.3 L168.443,86.564 C168.453,86.657 168.497,86.736 168.68,86.783 C168.927,86.845 171.208,86.875 171.208,86.875 L171.208,87.925 L164.316,87.925 L164.316,86.875 C164.316,86.875 164.99,86.875 165.152,86.875 C166.68,86.842 166.946,86.757 166.984,86.734 C166.984,86.734 167.139,86.603 167.139,85.725 L167.139,71.485 C167.139,69.988 166.85,69.054 166.282,68.704 C166.102,68.591 165.698,68.455 164.777,68.455 C164.108,68.455 163.768,68.451 163.768,68.451 L163.768,67.341 L169.668,67.333 L169.755,67.464 L179.225,81.599 L179.225,69.63 C179.225,68.874 179.207,68.655 179.197,68.591 C179.189,68.545 179.146,68.511 179.107,68.493 C179.104,68.491 178.904,68.451 177.844,68.451 C177.388,68.451 176.544,68.451 176.544,68.451 L176.544,67.341 C176.544,67.341 177.172,67.348 177.496,67.348 L183.038,67.341 L183.038,68.451 L180.9,68.451 C180.64,68.451 180.568,68.497 180.566,68.5 L180.566,68.468 C180.576,68.468 180.532,68.624 180.532,69.283 L180.532,87.948 L179.581,87.948" fill="#8B263C"/>
    <path d="M267.454,87.974 C267.281,87.974 261.51,87.974 260.66,87.974 C260.43,87.974 259.732,87.974 259.732,87.974 C259.732,87.826 259.732,86.956 259.732,86.956 C259.732,86.956 260.641,86.94 261.237,86.93 C261.734,86.93 262.059,86.837 262.18,86.665 C262.188,86.646 262.276,86.466 262.276,85.626 L262.276,68.557 C260.144,68.588 259.361,68.72 259.082,68.828 C257.958,69.238 257.314,70.328 257.108,72.166 C257.082,72.437 257.028,73.266 257.028,73.266 L255.832,73.266 L255.832,67.33 L272.367,67.33 C272.367,67.33 272.367,72.746 272.367,72.771 C272.367,73.166 272.367,73.408 272.367,73.408 L271.105,73.408 C271.105,73.408 271.002,71.966 270.887,71.387 C270.764,70.748 270.552,70.186 270.264,69.738 C269.9,69.16 269.307,68.802 268.444,68.64 C267.856,68.521 267.431,68.488 267.062,68.501 C266.41,68.516 265.946,68.532 265.663,68.542 L265.663,85.747 C265.663,86.324 265.799,86.68 266.062,86.809 C266.139,86.848 266.423,86.935 267.575,86.956 C268.176,86.956 268.176,86.956 268.176,86.956 L268.176,87.974 C268.176,87.974 267.699,87.974 267.454,87.974" fill="#8B263C"/>
    <path d="M351.505,87.974 C351.333,87.974 345.561,87.974 344.711,87.974 C344.481,87.974 343.783,87.974 343.783,87.974 C343.783,87.826 343.783,86.956 343.783,86.956 C343.783,86.956 344.693,86.94 345.288,86.93 C345.786,86.93 346.11,86.837 346.232,86.665 C346.239,86.646 346.327,86.466 346.327,85.626 L346.327,68.557 C344.195,68.588 343.412,68.72 343.133,68.828 C342.01,69.238 341.365,70.328 341.159,72.166 C341.133,72.437 341.079,73.266 341.079,73.266 L339.883,73.266 L339.883,67.33 L356.418,67.33 C356.418,67.33 356.418,72.746 356.418,72.771 C356.418,73.166 356.418,73.408 356.418,73.408 L355.156,73.408 C355.156,73.408 355.054,71.966 354.939,71.387 C354.815,70.748 354.603,70.186 354.315,69.738 C353.951,69.16 353.359,68.802 352.495,68.64 C351.907,68.521 351.482,68.488 351.113,68.501 C350.461,68.516 349.997,68.532 349.714,68.542 L349.714,85.747 C349.714,86.324 349.85,86.68 350.113,86.809 C350.191,86.848 350.474,86.935 351.626,86.956 C352.227,86.956 352.227,86.956 352.227,86.956 L352.227,87.974 C352.227,87.974 351.75,87.974 351.505,87.974" fill="#8B263C"/>
    <path d="M445.727,87.974 C445.555,87.974 439.784,87.974 438.933,87.974 C438.704,87.974 438.005,87.974 438.005,87.974 C438.005,87.826 438.005,86.956 438.005,86.956 C438.005,86.956 438.915,86.94 439.51,86.93 C440.008,86.93 440.333,86.837 440.454,86.665 C440.462,86.646 440.549,86.466 440.549,85.626 L440.549,68.557 C438.418,68.588 437.634,68.72 437.356,68.828 C436.232,69.238 435.587,70.328 435.381,72.166 C435.355,72.437 435.301,73.266 435.301,73.266 L434.105,73.266 L434.105,67.33 L450.64,67.33 C450.64,67.33 450.64,72.746 450.64,72.771 C450.64,73.166 450.64,73.408 450.64,73.408 L449.378,73.408 C449.378,73.408 449.276,71.966 449.161,71.387 C449.037,70.748 448.826,70.186 448.537,69.738 C448.174,69.16 447.581,68.802 446.717,68.64 C446.13,68.521 445.704,68.488 445.336,68.501 C444.684,68.516 444.22,68.532 443.936,68.542 L443.936,85.747 C443.936,86.324 444.073,86.68 444.336,86.809 C444.413,86.848 444.696,86.935 445.849,86.956 C446.449,86.956 446.449,86.956 446.449,86.956 L446.449,87.974 C446.449,87.974 445.972,87.974 445.727,87.974" fill="#8B263C"/>
    <path d="M47.34,47.412 L47.851,47.402 L49.707,33.834 L72.688,32.829 L72.735,32.32 L49.259,33.382" fill="#8B263C"/>
    <path d="M71.051,50.184 L47.426,50.509 L45.458,64.898 L44.947,64.891 L46.977,50.063 L71.098,49.678 L71.051,50.184" fill="#8B263C"/>
  </g>
</svg>
